<svg width="301" height="128" viewBox="0 0 301 128" fill="none" xmlns="http://www.w3.org/2000/svg">
<rect x="3.5" y="3.5" width="275" height="121" rx="21.5" stroke="#00CA32" stroke-width="7"/>
<rect x="13" y="13" width="256" height="101" rx="10" fill="#00CA32"/>
<path d="M24.5572 86V83.84L41.8372 66.44C45.8572 62.36 47.5972 59.12 47.5972 55.58C47.5972 50 43.6372 46.04 37.9372 46.04C32.6572 46.04 28.6372 49.46 28.0372 54.68H24.8572C25.5172 48.02 31.0372 43.4 38.0572 43.4C45.4372 43.4 50.7772 48.62 50.7772 55.58C50.7772 59.84 48.6772 63.74 43.9972 68.48L29.1172 83.36H50.7172V86H24.5572ZM58.5889 65C58.5889 51.56 64.1089 43.4 73.2889 43.4C82.4089 43.4 87.9289 51.56 87.9289 65C87.9289 78.38 82.4089 86.6 73.2889 86.6C64.1089 86.6 58.5889 78.38 58.5889 65ZM73.2889 46.1C65.9689 46.1 61.7689 53.06 61.7689 65C61.7689 77 65.9689 83.9 73.2889 83.9C80.6089 83.9 84.7489 77.06 84.7489 65C84.7489 52.94 80.6089 46.1 73.2889 46.1ZM127.065 54.14C133.485 54.14 137.445 58.34 137.445 65.12V86H134.505V65.66C134.505 60.08 131.445 56.84 126.225 56.84C120.405 56.84 116.805 60.86 116.805 67.16V86H113.865V42.2H116.805V60.08C118.485 56.36 122.265 54.14 127.065 54.14ZM160.112 54.14C168.932 54.14 174.992 60.74 174.992 70.34C174.992 79.94 168.932 86.6 160.112 86.6C151.172 86.6 145.052 79.94 145.052 70.34C145.052 60.74 151.172 54.14 160.112 54.14ZM160.052 83.9C167.192 83.9 171.932 78.44 171.932 70.34C171.932 62.3 167.132 56.84 160.052 56.84C152.972 56.84 148.112 62.3 148.112 70.34C148.112 78.44 152.972 83.9 160.052 83.9ZM192.967 86.6C186.547 86.6 182.587 82.4 182.587 75.62V54.74H185.527V75.08C185.527 80.66 188.527 83.9 193.807 83.9C199.627 83.9 203.227 79.88 203.227 73.58V54.74H206.167V86H203.647L203.287 80.66C201.487 84.38 197.767 86.6 192.967 86.6ZM228.6 54.44V57.14C227.88 56.9 227.1 56.78 226.32 56.78C221.1 56.78 218.46 60.98 218.46 67.88V86H215.52V54.74H218.04L218.4 60.08C219.54 56.42 222.48 54.14 226.08 54.14C227.16 54.14 227.94 54.26 228.6 54.44ZM237.783 62.54C237.783 65.24 239.823 66.92 244.983 68.24L246.783 68.72C253.863 70.46 256.623 72.92 256.623 77.18C256.623 82.82 252.243 86.6 245.643 86.6C239.163 86.6 234.543 82.88 233.943 77.18H236.943C237.423 81.26 240.843 83.9 245.763 83.9C250.383 83.9 253.623 81.14 253.623 77.36C253.623 74.42 251.763 72.8 246.363 71.48L244.563 71C237.723 69.32 234.783 66.8 234.783 62.72C234.783 57.8 239.103 54.14 245.043 54.14C251.103 54.14 255.483 57.62 255.903 62.66H252.903C252.543 59.18 249.363 56.78 245.103 56.78C240.843 56.78 237.783 59.24 237.783 62.54Z" fill="white"/>
<path d="M287 43V43C294.732 43 301 49.268 301 57V72C301 79.732 294.732 86 287 86V86V43Z" fill="#00CA32"/>
</svg>
