<svg width="281" height="260" viewBox="0 0 281 260" fill="none" xmlns="http://www.w3.org/2000/svg">
<path fill-rule="evenodd" clip-rule="evenodd" d="M238 131.5C238 184.243 195.243 227 142.5 227C89.7568 227 47 184.243 47 131.5C47 78.7568 89.7568 36 142.5 36C195.243 36 238 78.7568 238 131.5ZM142.5 231C197.452 231 242 186.452 242 131.5C242 76.5476 197.452 32 142.5 32C87.5476 32 43 76.5476 43 131.5C43 186.452 87.5476 231 142.5 231ZM253 131C253 192.856 202.856 243 141 243C79.1442 243 29 192.856 29 131C29 69.1442 79.1442 19 141 19C202.856 19 253 69.1442 253 131ZM141 247C205.065 247 257 195.065 257 131C257 66.9349 205.065 15 141 15C76.9349 15 25 66.9349 25 131C25 195.065 76.9349 247 141 247ZM163.474 260C225.146 249.134 272 195.288 272 130.5C272 63.3931 221.733 8.02661 156.797 0H177.097C234.153 15.9675 276 68.3468 276 130.5C276 191.412 235.808 242.937 180.497 260H163.474ZM100.503 260H117.526C55.8538 249.134 9 195.288 9 130.5C9 63.3931 59.2672 8.02661 124.203 0H103.903C46.8468 15.9675 5 68.3468 5 130.5C5 191.412 45.1921 242.937 100.503 260ZM216.67 0C245.264 16.4265 268.01 41.9365 281 72.6108V67.6553C268.069 39.4835 246.908 15.8982 220.609 0H216.67ZM281 196.345V191.389C269.022 219.675 248.747 243.57 223.24 260H226.878C250.272 244.263 269.113 222.242 281 196.345ZM56.1221 260H59.7599C32.7737 242.617 11.6437 216.878 0 186.423V191.795C11.7145 219.663 31.3696 243.349 56.1221 260ZM0 72.2053V77.5767C12.5729 44.6915 36.2065 17.3052 66.3304 0H62.3907C34.688 16.7468 12.687 42.0233 0 72.2053Z" fill="url(#paint0_linear_51_9)"/>
<defs>
<linearGradient id="paint0_linear_51_9" x1="141" y1="-5.12289e-09" x2="140.5" y2="260" gradientUnits="userSpaceOnUse">
<stop stop-color="#4A4A4A"/>
<stop offset="0.484375" stop-color="#E9E9E9"/>
<stop offset="1" stop-color="#4A4A4A"/>
</linearGradient>
</defs>
</svg>
