<svg width="68" height="75" viewBox="0 0 68 75" fill="none" xmlns="http://www.w3.org/2000/svg">
<path d="M36.4042 28.879C37.0423 28.879 37.6544 29.1325 38.1056 29.5838C38.5569 30.0351 38.8104 30.6471 38.8104 31.2853V35.0198C38.8098 40.7685 37.9136 46.4821 36.1539 51.955L29.7485 71.8787C29.5416 72.471 29.1117 72.9591 28.5502 73.239C27.9887 73.5189 27.3401 73.5684 26.7426 73.377C26.1451 73.1856 25.646 72.7684 25.3517 72.2143C25.0574 71.6602 24.9911 71.0131 25.167 70.4109L31.5676 50.4823C33.1743 45.4854 33.9926 40.2687 33.9931 35.0198V31.2853C33.9931 30.6471 34.2466 30.0351 34.6979 29.5838C35.1491 29.1325 35.7612 28.879 36.3993 28.879H36.4042Z" fill="#C94F75"/>
<path d="M26.7791 31.2853C26.7791 30.0213 27.0281 28.7697 27.5118 27.6019C27.9955 26.4342 28.7045 25.3731 29.5982 24.4794C30.492 23.5856 31.5531 22.8766 32.7208 22.3929C33.8886 21.9092 35.1402 21.6603 36.4041 21.6603C37.6681 21.6603 38.9197 21.9092 40.0875 22.3929C41.2552 22.8766 42.3163 23.5856 43.21 24.4794C44.1038 25.3731 44.8128 26.4342 45.2965 27.6019C45.7802 28.7697 46.0291 30.0213 46.0291 31.2853C46.0291 31.9235 45.7756 32.5355 45.3244 32.9868C44.8731 33.438 44.2611 33.6915 43.6229 33.6915C42.9847 33.6915 42.3727 33.438 41.9214 32.9868C41.4702 32.5355 41.2166 31.9235 41.2166 31.2853C41.2166 30.0089 40.7096 28.7848 39.8071 27.8823C38.9046 26.9798 37.6805 26.4728 36.4041 26.4728C35.1278 26.4728 33.9037 26.9798 33.0012 27.8823C32.0987 28.7848 31.5916 30.0089 31.5916 31.2853V32.883C31.5916 34.8513 31.4858 36.81 31.274 38.7591C31.1907 39.3805 30.8682 39.9448 30.3751 40.332C29.8821 40.7192 29.2573 40.8986 28.6339 40.8322C28.0105 40.7657 27.4377 40.4585 27.0373 39.9761C26.637 39.4936 26.4408 38.8739 26.4904 38.249C26.6829 36.4683 26.7791 34.6781 26.7791 32.883V31.2853ZM43.6662 36.0978C43.9822 36.1059 44.2936 36.1762 44.5824 36.3047C44.8712 36.4332 45.1319 36.6173 45.3496 36.8466C45.5673 37.0758 45.7376 37.3457 45.8509 37.6409C45.9642 37.936 46.0182 38.2506 46.0099 38.5666C45.8673 44.033 44.9153 49.4482 43.185 54.6355L37.0923 72.923C36.89 73.5287 36.4554 74.0291 35.8841 74.3143C35.3128 74.5995 34.6516 74.6461 34.046 74.4438C33.4404 74.2415 32.9399 73.8069 32.6547 73.2356C32.3695 72.6643 32.323 72.0031 32.5253 71.3975L38.6227 53.11C40.2007 48.3745 41.0684 43.4313 41.1974 38.4415C41.2055 38.1254 41.2758 37.8141 41.4043 37.5253C41.5328 37.2364 41.7169 36.9757 41.9462 36.7581C42.1754 36.5404 42.4454 36.3701 42.7405 36.2568C43.0356 36.1435 43.3502 36.0895 43.6662 36.0978ZM27.5155 46.2762C27.8177 46.3695 28.0985 46.5215 28.342 46.7235C28.5854 46.9255 28.7866 47.1734 28.9341 47.4533C29.0816 47.7331 29.1725 48.0392 29.2016 48.3542C29.2307 48.6691 29.1974 48.9868 29.1036 49.2888L22.8329 69.4917C22.744 69.7989 22.5948 70.0854 22.3939 70.3343C22.193 70.5831 21.9446 70.7895 21.663 70.9412C21.3815 71.093 21.0725 71.187 20.7542 71.218C20.4358 71.2489 20.1145 71.2161 19.809 71.1214C19.5036 71.0267 19.22 70.8721 18.975 70.6665C18.7299 70.461 18.5283 70.2086 18.382 69.9243C18.2356 69.6399 18.1474 69.3292 18.1225 69.0103C18.0976 68.6915 18.1365 68.3709 18.237 68.0672L24.5076 47.8595C24.6972 47.2511 25.1203 46.7428 25.6842 46.4459C26.248 46.1491 26.9066 46.0881 27.5155 46.2762Z" fill="#E89DB5"/>
<path d="M20.5181 25.6691C21.8472 21.9279 24.4547 18.7763 27.8808 16.7701C31.3069 14.7639 35.3313 14.032 39.2444 14.7035C43.1574 15.3751 46.7076 17.4069 49.2687 20.4406C51.8299 23.4743 53.2374 27.315 53.2431 31.2853C53.2431 31.9235 52.9896 32.5355 52.5383 32.9867C52.087 33.438 51.475 33.6915 50.8368 33.6915C50.1986 33.6915 49.5866 33.438 49.1354 32.9867C48.6841 32.5355 48.4306 31.9235 48.4306 31.2853C48.4301 28.4473 47.4265 25.7009 45.5971 23.5314C43.7676 21.3618 41.2301 19.9088 38.4331 19.4291C35.636 18.9494 32.7593 19.4738 30.3115 20.9098C27.8637 22.3458 26.0023 24.6009 25.0563 27.2765C24.8431 27.8783 24.3996 28.3707 23.8234 28.6456C23.2471 28.9204 22.5853 28.955 21.9835 28.7419C21.3817 28.5287 20.8892 28.0852 20.6144 27.509C20.3396 26.9327 20.3049 26.2709 20.5181 25.6691ZM21.9618 33.706C22.5967 33.768 23.181 34.0797 23.5862 34.5724C23.9914 35.0652 24.1844 35.6986 24.1226 36.3336C23.7978 39.6461 23.1531 42.9194 22.1976 46.1078L16.3168 65.7043C16.1336 66.3157 15.7151 66.8292 15.1533 67.132C14.5915 67.4348 13.9324 67.502 13.321 67.3189C12.7096 67.1357 12.196 66.7172 11.8932 66.1554C11.5904 65.5936 11.5232 64.9345 11.7064 64.3231L17.5873 44.7266C18.4543 41.835 19.0393 38.8663 19.3342 35.862C19.3963 35.227 19.7079 34.6428 20.2007 34.2376C20.6934 33.8324 21.3269 33.6442 21.9618 33.706ZM50.8368 36.8196C51.475 36.8196 52.087 37.0732 52.5383 37.5244C52.9896 37.9757 53.2431 38.5877 53.2431 39.2259C53.2431 45.3859 52.218 51.5074 50.2016 57.3305L44.956 72.4658C44.7275 73.0421 44.2855 73.5079 43.7221 73.7662C43.1586 74.0246 42.5172 74.0556 41.9315 73.8527C41.3458 73.6498 40.861 73.2287 40.5781 72.6772C40.2952 72.1256 40.236 71.4862 40.413 70.8921L45.6538 55.7568C47.4921 50.439 48.4354 44.8517 48.4354 39.2259C48.4354 38.5877 48.6889 37.9757 49.1402 37.5244C49.5914 37.0732 50.2035 36.8196 50.8416 36.8196H50.8368Z" fill="#C94F75"/>
<path d="M16.3938 17.9161C19.0674 13.9079 22.8836 10.7954 27.3474 8.98222C31.8113 7.16903 36.717 6.7388 41.4284 7.74733C41.7378 7.81306 42.0311 7.93908 42.2918 8.11819C42.5525 8.29729 42.7753 8.52599 42.9476 8.79122C43.1198 9.05644 43.2382 9.353 43.2958 9.66396C43.3535 9.97492 43.3493 10.2942 43.2836 10.6036C43.2179 10.9129 43.0919 11.2063 42.9128 11.4669C42.7337 11.7276 42.505 11.9504 42.2397 12.1227C41.9745 12.295 41.678 12.4133 41.367 12.471C41.056 12.5286 40.7368 12.5245 40.4274 12.4588C36.6575 11.6498 32.7314 11.9927 29.1589 13.443C25.5863 14.8933 22.5322 17.384 20.393 20.5919C20.033 21.1101 19.484 21.4662 18.8641 21.5835C18.2442 21.7008 17.603 21.57 17.0786 21.2191C16.5542 20.8683 16.1886 20.3255 16.0605 19.7077C15.9324 19.0899 16.0521 18.4466 16.3938 17.9161ZM48.7338 13.3202C49.1506 12.8373 49.7421 12.5396 50.3784 12.4927C51.0146 12.4458 51.6434 12.6534 52.1266 13.07C54.7452 15.3272 56.8456 18.1233 58.2842 21.267C59.7228 24.4107 60.4656 27.828 60.4618 31.2853V38.504C60.4618 39.1422 60.2083 39.7542 59.7571 40.2055C59.3058 40.6568 58.6938 40.9103 58.0556 40.9103C57.4174 40.9103 56.8054 40.6568 56.3541 40.2055C55.9028 39.7542 55.6493 39.1422 55.6493 38.504V31.2853C55.6527 28.5192 55.0585 25.7851 53.9072 23.27C52.756 20.7549 51.075 18.5182 48.9792 16.713C48.497 16.2955 48.2002 15.7036 48.1542 15.0674C48.1082 14.4312 48.3166 13.8028 48.7338 13.3202ZM15.3254 25.7124C15.6383 25.7583 15.9391 25.8655 16.2106 26.0278C16.4821 26.19 16.7189 26.4042 16.9075 26.6581C17.0961 26.912 17.2329 27.2006 17.3099 27.5073C17.3869 27.8141 17.4026 28.133 17.3563 28.4459C17.2167 29.3699 17.1445 30.3228 17.1445 31.2853C17.1445 34.7021 16.6633 38.1046 15.7104 41.3915L10.2241 60.271C10.1419 60.581 9.99855 60.8715 9.80243 61.1254C9.60631 61.3792 9.36142 61.5913 9.08215 61.7491C8.80288 61.9069 8.49487 62.0073 8.17624 62.0444C7.8576 62.0814 7.53477 62.0544 7.22674 61.9649C6.9187 61.8754 6.63168 61.7252 6.38254 61.5231C6.1334 61.321 5.92718 61.0712 5.776 60.7883C5.62482 60.5053 5.53174 60.195 5.50222 59.8756C5.47271 59.5562 5.50737 59.2341 5.60415 58.9283L11.0904 40.0488C11.9156 37.2008 12.3336 34.2504 12.332 31.2853C12.332 30.0821 12.4235 28.8983 12.5919 27.7433C12.6378 27.4303 12.745 27.1295 12.9073 26.8581C13.0695 26.5866 13.2837 26.3498 13.5376 26.1611C13.7915 25.9725 14.0801 25.8358 14.3868 25.7588C14.6936 25.6818 15.0125 25.666 15.3254 25.7124ZM58.07 43.3261C58.7055 43.38 59.2936 43.684 59.7051 44.1713C60.1166 44.6586 60.3178 45.2893 60.2645 45.9249C59.8603 50.7374 58.8304 55.4825 57.1845 60.0448L53.604 69.997C53.3808 70.5875 52.9345 71.0666 52.3613 71.3311C51.7881 71.5955 51.1339 71.6241 50.5398 71.4107C49.9457 71.1974 49.4593 70.759 49.1853 70.1903C48.9114 69.6216 48.8719 68.968 49.0755 68.3704L52.6608 58.4085C54.1562 54.2537 55.101 49.9209 55.4713 45.5206C55.5252 44.8851 55.8292 44.297 56.3165 43.8855C56.8037 43.474 57.4345 43.2728 58.07 43.3261Z" fill="#E89DB5"/>
<path d="M20.7635 4.19089C25.5192 1.44522 30.9138 -0.000176282 36.4052 1.61256e-08C41.8965 0.000176314 47.291 1.44592 52.0465 4.1919C56.802 6.93788 60.7508 10.8873 63.496 15.6432C66.2412 20.3991 67.6861 25.7939 67.6854 31.2853C67.6854 31.9234 67.4319 32.5355 66.9806 32.9867C66.5294 33.438 65.9173 33.6915 65.2792 33.6915C64.641 33.6915 64.0289 33.438 63.5777 32.9867C63.1264 32.5355 62.8729 31.9234 62.8729 31.2853C62.8745 26.6383 61.6526 22.0728 59.3301 18.0478C57.0076 14.0228 53.6664 10.6801 49.6424 8.35594C45.6184 6.03177 41.0534 4.80796 36.4064 4.80756C31.7594 4.80717 27.1942 6.03021 23.1698 8.35371C22.6198 8.64138 21.98 8.70545 21.384 8.53253C20.7879 8.35961 20.2818 7.96308 19.9712 7.42576C19.6606 6.88844 19.5696 6.2519 19.7173 5.64909C19.8649 5.04629 20.2398 4.52384 20.7635 4.19089ZM16.4804 10.2402C16.7161 10.4507 16.9081 10.7055 17.0454 10.9901C17.1826 11.2748 17.2625 11.5836 17.2804 11.8991C17.2982 12.2147 17.2538 12.5306 17.1496 12.8289C17.0453 13.1272 16.8834 13.4021 16.6729 13.6378C12.3243 18.4861 9.92429 24.7725 9.9354 31.2853C9.9354 31.9234 9.68188 32.5355 9.23062 32.9867C8.77936 33.438 8.16732 33.6915 7.52915 33.6915C6.89097 33.6915 6.27893 33.438 5.82767 32.9867C5.37641 32.5355 5.1229 31.9234 5.1229 31.2853C5.1229 23.2773 8.13552 15.9623 13.0876 10.4327C13.298 10.197 13.5528 10.005 13.8375 9.86773C14.1221 9.73047 14.431 9.65062 14.7465 9.63275C15.062 9.61487 15.378 9.65932 15.6763 9.76355C15.9746 9.86778 16.2447 10.0297 16.4804 10.2402ZM6.83134 36.194C7.44496 36.3668 7.96495 36.776 8.27715 37.3318C8.58934 37.8876 8.66822 38.5446 8.49646 39.1585L4.74752 52.4747C4.67268 52.7902 4.53486 53.0873 4.34232 53.3482C4.14978 53.6091 3.9065 53.8283 3.6271 53.9928C3.34769 54.1573 3.03792 54.2637 2.71639 54.3055C2.39486 54.3473 2.0682 54.3236 1.75602 54.236C1.44385 54.1484 1.1526 53.9986 0.899773 53.7956C0.646944 53.5926 0.437747 53.3406 0.284747 53.0548C0.131747 52.7689 0.0380987 52.455 0.00942672 52.1321C-0.0192452 51.8091 0.0176504 51.4837 0.117898 51.1753L3.86202 37.8591C3.94754 37.5548 4.09221 37.2702 4.28775 37.0218C4.48329 36.7734 4.72587 36.5659 5.00162 36.4113C5.27738 36.2566 5.58091 36.1578 5.89486 36.1206C6.20881 36.0833 6.52703 36.1083 6.83134 36.194ZM65.3032 38.5088C65.6192 38.5151 65.9309 38.5835 66.2205 38.7103C66.51 38.837 66.7718 39.0196 66.9907 39.2475C67.2097 39.4754 67.3817 39.7443 67.4967 40.0386C67.6118 40.333 67.6677 40.6472 67.6613 40.9632C67.517 48.1771 66.8865 55.521 64.1626 62.7783L63.8258 63.6782C63.5901 64.2594 63.1368 64.7255 62.5625 64.9775C61.9882 65.2294 61.3382 65.2471 60.751 65.0269C60.1638 64.8067 59.6858 64.366 59.4187 63.7985C59.1517 63.2311 59.1167 62.5819 59.3213 61.989L59.6581 61.0891C62.0933 54.5922 62.7093 47.9028 62.8488 40.867C62.8551 40.5509 62.9235 40.2393 63.0503 39.9497C63.177 39.6602 63.3596 39.3984 63.5875 39.1794C63.8154 38.9604 64.0843 38.7885 64.3786 38.6735C64.673 38.5584 64.9872 38.5025 65.3032 38.5088Z" fill="#C94F75"/>
</svg>
