<svg width="102" height="72" viewBox="0 0 102 72" fill="none" xmlns="http://www.w3.org/2000/svg">
<path d="M26.9875 48.0706L18.0625 38.9647C22.4542 34.5882 27.4833 31.2353 33.15 28.9059C38.8167 26.5765 44.7667 25.4118 51 25.4118C57.2333 25.4118 63.2017 26.5948 68.9052 28.9609C74.6087 31.3271 79.6195 34.7322 83.9375 39.1765L75.0125 48.0706C71.825 44.8941 68.1587 42.4405 64.0135 40.7097C59.8683 38.9788 55.5305 38.1148 51 38.1177C46.4667 38.1177 42.1274 38.9831 37.9823 40.7139C33.8371 42.4447 30.1722 44.8969 26.9875 48.0706ZM8.925 30.0706L0 21.1765C6.72917 14.3294 14.5038 9.08753 23.324 5.45083C32.1442 1.81412 41.3695 -0.00282024 51 3.28572e-06C60.6333 3.28572e-06 69.8601 1.81836 78.6803 5.45506C87.5004 9.09177 95.2737 14.3322 102 21.1765L93.075 30.0706C87.4792 24.4941 81.0503 20.2052 73.7885 17.2038C66.5267 14.2024 58.9305 12.7031 51 12.7059C43.0667 12.7059 35.4691 14.2066 28.2073 17.208C20.9454 20.2094 14.518 24.4969 8.925 30.0706ZM51 72L36.0188 56.9647C38.0021 54.9882 40.2872 53.4706 42.874 52.4118C45.4608 51.3529 48.1695 50.8235 51 50.8235C53.8333 50.8235 56.5434 51.3529 59.1303 52.4118C61.7171 53.4706 64.0007 54.9882 65.9812 56.9647L51 72Z" fill="url(#paint0_linear_24_3)"/>
<defs>
<linearGradient id="paint0_linear_24_3" x1="7.59959e-07" y1="36" x2="102" y2="36" gradientUnits="userSpaceOnUse">
<stop stop-color="#92D7E2"/>
<stop offset="1" stop-color="#01BDE8"/>
</linearGradient>
</defs>
</svg>
